<?xml version="1.0" standalone="no"?>
<!DOCTYPE svg PUBLIC "-//W3C//DTD SVG 20010904//EN"
 "http://www.w3.org/TR/2001/REC-SVG-20010904/DTD/svg10.dtd">
<svg version="1.0" xmlns="http://www.w3.org/2000/svg"
 width="300.000000pt" height="300.000000pt" viewBox="0 0 300.000000 300.000000"
 preserveAspectRatio="xMidYMid meet">
<metadata>
Created by potrace 1.10, written by Peter Selinger 2001-2011
</metadata>
<g transform="translate(0.000000,300.000000) scale(0.100000,-0.100000)"
fill="#000000" stroke="none">
<path d="M447 2584 c-17 -17 -3 -55 72 -198 43 -83 109 -212 146 -286 37 -74
75 -143 83 -152 10 -12 30 -18 58 -18 53 0 91 -14 124 -45 24 -22 33 -23 170
-26 138 -2 230 6 230 20 0 3 -76 154 -168 336 -119 235 -175 335 -195 350 -26
19 -45 20 -270 23 -134 2 -246 0 -250 -4z m508 -64 c15 -14 92 -155 172 -314
124 -249 143 -292 130 -301 -11 -8 -60 -10 -149 -7 -126 4 -135 5 -176 32 -27
18 -64 31 -98 36 -64 8 -50 -13 -204 289 -62 121 -116 225 -120 230 -8 9 -14
42 -11 56 0 4 97 6 215 5 214 -1 214 -1 241 -26z"/>
<path d="M2054 2579 c-16 -5 -39 -19 -51 -31 -27 -30 -350 -665 -342 -673 10
-9 491 -29 520 -22 20 6 54 66 204 362 150 296 178 357 165 365 -19 12 -453
12 -496 -1z m438 -54 c-2 -11 -24 -60 -49 -110 -25 -49 -93 -182 -150 -294
-57 -113 -109 -211 -116 -219 -10 -12 -45 -14 -221 -8 -115 4 -215 10 -223 14
-20 12 256 563 305 610 l34 33 212 -3 c205 -3 211 -4 208 -23z"/>
<path d="M685 1887 c-44 -21 -65 -49 -67 -91 -1 -36 -2 -36 -45 -36 -35 0 -50
-6 -80 -34 -36 -33 -38 -37 -41 -110 -4 -64 -7 -76 -24 -82 -46 -14 -48 -90
-4 -114 l25 -13 3 -418 3 -419 26 -26 c46 -45 177 -59 489 -50 30 0 93 -2 140
-6 55 -4 73 -3 50 2 -19 5 -66 12 -105 15 -229 19 -487 49 -516 60 -17 6 -39
46 -39 70 0 20 -5 20 325 -24 281 -37 293 -40 345 -72 29 -18 101 -53 159 -78
l106 -45 180 -6 c99 -4 230 -15 290 -23 61 -9 155 -23 210 -31 99 -14 151 -33
175 -61 25 -30 142 -13 187 27 39 36 43 85 43 557 0 294 3 451 10 451 20 0 50
41 50 68 0 29 -26 62 -48 62 -9 0 -12 37 -12 130 0 144 -9 177 -56 198 -17 8
-124 16 -303 22 -152 5 -406 15 -564 21 -269 11 -290 10 -327 -6 -28 -12 -51
-16 -77 -11 -21 4 -83 9 -139 12 -86 5 -103 4 -117 -11 -15 -14 -17 -14 -17
-1 0 9 -12 30 -27 46 -26 28 -35 32 -103 36 -52 3 -84 0 -105 -9z m160 -57
c10 -11 21 -17 26 -15 11 7 49 -44 49 -66 0 -14 -7 -19 -29 -19 -31 0 -57 22
-46 40 3 6 -3 10 -16 10 -16 0 -20 5 -16 20 4 16 0 20 -19 20 -16 0 -24 -6
-24 -17 0 -15 -10 -18 -50 -19 -55 -2 -65 13 -33 48 24 27 133 26 158 -2z
m314 -65 c7 -7 10 -18 7 -24 -10 -16 -26 -13 -26 4 0 8 -7 15 -15 15 -9 0 -14
-8 -12 -21 1 -12 -4 -24 -10 -26 -8 -3 -13 4 -13 16 0 12 -6 21 -15 21 -9 0
-15 -7 -13 -16 2 -10 -3 -19 -11 -22 -10 -3 -12 1 -8 17 4 16 1 21 -14 21 -13
0 -19 -6 -17 -17 2 -11 -3 -18 -12 -18 -8 0 -16 10 -18 23 -2 12 -7 22 -12 22
-5 0 -11 -10 -13 -22 -3 -17 -5 -15 -6 9 0 17 5 34 12 37 22 10 182 -6 196
-19z m861 5 c184 -6 355 -14 380 -18 62 -10 70 -30 70 -173 l0 -117 -36 -6
c-19 -4 -42 -10 -50 -13 -12 -4 -14 14 -14 106 0 86 3 111 13 111 21 0 28 -12
16 -26 -14 -17 -4 -44 16 -44 12 0 15 9 13 40 -2 28 -8 40 -18 40 -10 0 -8 6
8 18 29 23 19 32 -34 32 -67 0 -77 -22 -72 -165 l3 -115 -50 0 c-119 0 -393
23 -425 36 -19 7 -84 18 -145 24 -60 6 -139 15 -175 20 -72 12 -137 6 -220
-19 -41 -12 -73 -15 -125 -10 -38 4 -125 10 -192 14 l-123 7 0 -30 c0 -29 -1
-30 -44 -30 -44 1 -45 2 -48 37 -3 30 -7 36 -28 38 -14 1 -73 5 -132 8 l-108
7 0 48 c0 60 13 95 40 110 15 8 80 7 247 -5 355 -24 338 -25 436 41 l82 56
190 -6 c105 -3 341 -10 525 -16z m-1242 -20 c34 0 62 -4 62 -10 0 -5 -20 -10
-44 -10 -68 0 -136 12 -130 22 4 5 16 7 28 4 11 -3 49 -6 84 -6z m1574 -227
c2 -65 0 -83 -10 -83 -9 0 -12 6 -8 16 3 9 7 55 7 102 2 100 7 84 11 -35z
m-1614 -46 c6 0 12 -11 12 -24 0 -21 -3 -23 -37 -18 -21 3 -68 7 -105 9 l-68
3 0 -366 c0 -208 4 -360 9 -351 5 8 8 54 7 102 -1 55 3 83 9 77 5 -5 30 -9 55
-9 26 0 84 -11 131 -25 46 -14 110 -28 142 -32 31 -3 57 -9 57 -14 0 -4 3 -15
7 -25 6 -15 0 -16 -63 -9 -38 4 -103 17 -144 30 -100 31 -180 39 -180 20 0
-10 10 -15 26 -15 l27 0 -27 -21 c-31 -24 -34 -54 -7 -69 24 -12 35 1 26 29
-8 26 13 37 33 17 14 -13 14 -20 4 -36 -7 -11 -10 -20 -8 -20 2 0 64 -9 138
-20 73 -11 154 -20 179 -20 39 0 49 -4 64 -26 9 -14 15 -27 13 -29 -4 -3 -508
64 -525 70 -10 3 -13 92 -13 396 l0 391 113 -8 c61 -4 118 -7 125 -7z m793 -7
c235 -44 408 -303 372 -554 -36 -252 -251 -425 -482 -389 -128 20 -229 83
-300 188 -26 37 -34 56 -61 129 -7 19 -14 26 -20 20 -23 -23 47 -176 111 -242
17 -18 28 -36 25 -39 -13 -13 -109 101 -136 161 -41 92 -53 160 -48 273 4 74
12 114 32 163 61 151 198 263 356 290 66 11 91 11 151 0z m-444 -19 c39 -1 75
-5 78 -11 3 -5 1 -10 -5 -10 -6 0 -35 -22 -64 -50 -51 -48 -54 -49 -95 -42
-38 6 -44 11 -56 45 -7 21 -20 46 -29 56 -9 10 -16 20 -16 22 0 3 26 2 58 -2
31 -4 89 -8 129 -8z m729 -29 c90 -66 161 -164 202 -276 34 -95 36 -241 4
-330 -16 -42 -18 -55 -7 -46 7 6 24 41 36 77 18 56 21 81 17 169 -3 57 -3 106
0 109 7 7 32 -44 32 -66 0 -10 4 -20 9 -23 13 -8 32 -182 27 -246 -5 -69 -16
-129 -28 -155 -9 -19 -9 -20 6 -1 15 19 18 19 90 3 76 -17 131 -14 139 7 3 7
-10 10 -41 7 -24 -2 -71 2 -103 9 -52 11 -59 16 -59 36 0 27 2 28 50 14 87
-26 165 -9 252 51 14 11 28 19 30 19 11 0 -3 -116 -15 -125 -22 -19 -72 -78
-59 -71 7 4 12 2 12 -5 0 -7 14 7 30 29 17 23 31 42 33 42 1 0 1 -35 1 -77
l-1 -77 -47 -12 c-26 -7 -46 -8 -46 -3 0 5 14 12 30 16 29 5 52 23 32 23 -24
0 -88 -36 -84 -48 2 -7 -6 -12 -20 -12 -17 0 -20 3 -9 9 9 6 -19 9 -75 10 -49
0 -110 4 -136 9 -27 5 -48 6 -48 1 0 -13 -60 -11 -207 7 -123 15 -134 15 -180
0 -129 -46 -187 -54 -242 -35 -49 17 -37 29 32 29 125 0 228 43 317 131 102
100 159 252 147 392 -8 89 -8 89 -35 160 -12 32 -22 63 -22 70 0 26 49 -43 76
-108 27 -66 29 -78 29 -213 0 -130 1 -140 13 -110 8 18 16 65 19 105 15 187
-73 367 -242 501 -33 26 -36 31 -19 32 12 0 39 -13 60 -28z m701 6 c24 -26 19
-51 -17 -83 l-23 -20 7 38 c5 24 3 44 -4 52 -12 14 -6 35 9 35 4 0 17 -10 28
-22z m-1657 -17 c17 -32 12 -60 -15 -77 -50 -32 -103 22 -70 72 20 30 70 33
85 5z m-173 -17 c28 -3 46 -12 53 -24 18 -34 11 -38 -33 -25 -63 19 -139 23
-144 8 -3 -9 9 -13 40 -13 54 0 173 -35 205 -61 19 -14 26 -16 37 -6 7 7 11
14 9 16 -2 2 7 16 19 31 12 15 29 37 37 49 15 21 15 21 26 -11 9 -29 15 -33
52 -36 44 -3 51 -12 27 -32 -15 -12 -55 -5 -66 13 -4 5 -14 7 -23 4 -24 -9 0
-46 25 -40 32 9 51 -4 40 -25 -9 -18 -14 -18 -123 -1 -62 10 -131 24 -153 32
-55 20 -147 26 -152 10 -3 -9 11 -13 49 -13 55 0 143 -24 154 -41 3 -6 1 -16
-6 -24 -9 -11 -17 -12 -49 0 -53 18 -143 23 -148 8 -3 -9 10 -13 44 -13 27 0
70 -7 96 -16 39 -13 47 -20 47 -40 0 -28 -2 -28 -55 -9 -44 16 -135 20 -135 6
0 -4 26 -11 58 -14 87 -9 122 -24 122 -53 0 -13 -1 -24 -2 -24 -2 0 -25 7 -52
15 -27 8 -66 15 -88 15 -44 0 -40 -18 -42 186 l-1 141 45 -4 c25 -2 64 -6 87
-9z m1583 1 c63 0 134 4 157 8 l42 9 3 -94 c5 -151 3 -160 -48 -192 -24 -15
-41 -32 -38 -37 3 -6 20 1 37 14 51 38 53 38 51 -1 0 -20 -2 -98 -3 -172 -1
-129 -2 -135 -24 -146 -12 -6 -41 -21 -65 -34 -55 -29 -116 -36 -181 -20 -45
10 -51 15 -51 37 0 22 3 25 28 19 90 -20 129 -19 186 7 31 14 56 28 56 31 0 7
-43 -2 -49 -11 -3 -5 -10 -8 -16 -8 -5 0 -31 -4 -56 -8 -68 -11 -136 8 -142
40 -5 25 -4 25 42 17 72 -13 133 -9 170 12 18 10 44 25 57 32 24 13 32 32 14
32 -5 0 -19 -9 -30 -20 -11 -11 -24 -20 -29 -20 -5 0 -13 -6 -19 -13 -8 -10
-33 -11 -101 -6 -50 4 -95 11 -101 14 -5 3 -10 17 -10 30 0 26 11 27 95 5 45
-11 95 -1 96 19 0 10 2 11 6 3 6 -16 63 16 63 36 0 7 5 10 10 7 13 -8 32 4 24
16 -3 5 -22 0 -45 -13 -28 -16 -36 -24 -27 -31 9 -6 6 -7 -9 -4 -13 3 -26 1
-29 -4 -7 -12 -89 -10 -144 4 -35 9 -46 17 -48 35 -2 12 -2 22 0 22 2 0 36 -6
76 -14 41 -8 86 -11 105 -6 54 12 127 57 127 78 0 11 -92 -45 -98 -59 -1 -3
-13 -5 -25 -3 -194 25 -195 25 -201 47 -3 12 -3 23 0 26 2 2 37 -3 77 -12 76
-18 162 -23 139 -8 -11 7 -10 10 3 15 9 3 22 3 28 -1 7 -3 9 -3 5 2 -4 4 -43
9 -85 10 -128 2 -179 13 -192 43 -7 13 -10 26 -8 28 2 2 42 -3 88 -12 101 -19
112 -20 166 -5 44 12 96 50 114 82 7 14 -3 9 -34 -14 -70 -53 -121 -63 -228
-44 -49 9 -95 14 -103 11 -11 -4 -42 43 -34 51 2 2 37 -1 78 -6 161 -20 203
-22 196 -10 -5 7 1 11 15 11 24 0 89 37 89 51 0 15 -11 11 -52 -17 -46 -32
-86 -35 -241 -14 -87 11 -110 17 -118 33 -6 10 -9 20 -7 23 2 2 40 -1 84 -6
207 -25 204 -25 197 0 -5 20 -3 22 15 18 12 -4 25 -2 28 3 3 5 15 9 27 9 22
-1 22 -1 3 -15 -11 -8 -15 -15 -10 -15 16 0 84 61 84 76 0 18 -5 18 -33 0 -37
-24 -116 -28 -288 -16 -152 11 -166 13 -189 36 l-25 24 120 -7 c66 -5 172 -8
235 -8z m-155 -61 c55 -4 113 -8 130 -8 21 -1 31 -7 33 -20 4 -21 16 -21 -138
3 -36 6 -84 11 -106 11 -29 0 -44 5 -48 16 -4 11 -1 14 12 10 9 -2 62 -8 117
-12z m-1237 -127 c8 -9 6 -16 -8 -25 -16 -10 -20 -26 -22 -103 -3 -76 -6 -94
-21 -103 -15 -9 -22 -6 -39 14 -18 22 -20 35 -16 107 3 62 9 88 23 103 20 23
67 27 83 7z m80 3 c13 0 17 -26 4 -33 -4 -3 -21 6 -37 20 -29 24 -29 25 -5 19
14 -3 31 -6 38 -6z m-8 -55 c14 -8 19 -14 11 -15 -8 0 -11 -6 -7 -16 4 -9 2
-22 -4 -29 -5 -6 -13 -44 -16 -83 l-7 -72 -39 0 c-35 0 -38 2 -28 19 5 11 15
23 20 26 6 3 10 43 10 89 0 103 7 112 60 81z m-330 -105 c75 0 119 -19 136
-59 7 -17 12 -31 11 -31 -1 0 -26 9 -55 20 -55 21 -152 27 -152 10 0 -5 19
-10 43 -10 42 0 202 -51 221 -70 15 -15 58 -12 81 6 18 13 20 13 27 -3 18 -47
11 -54 -44 -47 -29 4 -87 17 -129 30 -42 13 -104 27 -138 30 -67 7 -62 1 -65
94 0 28 1 46 2 40 2 -5 30 -10 62 -10z m121 -245 c41 -14 109 -29 152 -32 73
-6 78 -7 92 -36 l15 -30 -63 7 c-34 3 -104 11 -154 18 -86 11 -93 14 -93 34 0
13 -12 32 -26 43 -36 28 -14 27 77 -4z m1277 -356 c272 -32 320 -32 398 2 26
11 49 17 52 14 3 -3 0 -23 -7 -46 -10 -34 -19 -44 -59 -62 -58 -26 -140 -27
-177 -3 -23 15 -95 32 -175 41 -25 2 -59 7 -195 25 -76 11 -129 13 -218 10
-32 -1 -61 1 -64 4 -4 3 7 6 23 6 16 0 47 9 69 19 22 11 53 20 68 20 15 1 144
-13 285 -30z"/>
<path d="M2286 1708 c-13 -18 -16 -48 -15 -138 l2 -115 8 113 c5 76 12 121 23
137 20 31 3 33 -18 3z"/>
<path d="M1280 1702 c0 -5 13 -40 28 -78 40 -97 58 -97 100 -2 20 45 29 75 23
81 -17 17 -37 0 -51 -42 -7 -23 -17 -41 -21 -41 -4 0 -15 20 -25 45 -11 31
-22 45 -35 45 -11 0 -19 -4 -19 -8z"/>
<path d="M1512 1694 c-25 -17 -29 -56 -9 -73 8 -6 28 -14 45 -17 18 -4 32 -10
32 -15 0 -13 -54 -11 -66 1 -8 8 -15 6 -23 -4 -10 -11 -8 -17 11 -30 34 -24
93 -21 112 6 9 12 16 26 16 30 0 19 -43 48 -70 48 -21 0 -30 5 -30 16 0 14 7
15 45 10 37 -6 45 -4 45 8 0 34 -69 47 -108 20z"/>
<path d="M1807 1695 c-12 -31 -8 -162 6 -173 6 -5 92 -13 190 -17 l177 -7 0
95 c0 53 -3 98 -7 100 -5 3 -87 8 -184 12 -161 7 -176 6 -182 -10z m252 -31
c11 -3 9 -10 -8 -27 -22 -25 -27 -52 -11 -62 6 -3 10 -13 10 -22 0 -13 -13
-15 -97 -9 -54 3 -101 10 -106 15 -4 4 -7 30 -5 57 3 41 6 49 27 54 26 6 168
2 190 -6z m49 -67 c4 -20 -25 -34 -40 -19 -15 15 -1 44 19 40 10 -2 19 -11 21
-21z"/>
<path d="M646 1635 c-9 -9 -16 -20 -16 -25 0 -14 31 -41 43 -37 21 7 32 36 21
54 -15 24 -29 26 -48 8z"/>
<path d="M925 1580 c-12 -19 9 -31 68 -37 47 -5 58 -3 63 11 9 23 7 23 -62 31
-44 5 -64 4 -69 -5z"/>
<path d="M1452 1429 c2 -8 24 -20 49 -27 24 -7 75 -28 113 -48 47 -23 73 -31
79 -25 28 28 -96 99 -188 108 -47 5 -57 3 -53 -8z"/>
<path d="M1345 1401 c-131 -33 -246 -143 -288 -276 -25 -80 -27 -204 -3 -227
8 -8 16 -23 19 -34 6 -24 7 -7 10 126 2 84 6 103 33 160 17 36 48 84 68 107
45 51 142 101 214 110 41 5 52 9 50 22 -4 18 -54 24 -103 12z"/>
<path d="M1387 1269 c-135 -32 -222 -144 -221 -285 0 -87 35 -166 96 -219 56
-47 60 -37 6 17 -55 54 -81 108 -86 178 -8 102 37 197 118 251 66 44 110 54
179 42 76 -15 130 -49 170 -109 17 -26 31 -43 31 -37 0 16 -54 86 -88 115 -50
42 -139 63 -205 47z"/>
<path d="M1788 1254 c6 -11 18 -28 27 -39 14 -19 15 -18 2 14 -7 19 -19 37
-26 39 -10 3 -10 0 -3 -14z"/>
<path d="M1694 1247 c-3 -8 11 -38 30 -67 44 -67 60 -132 54 -228 -5 -83 -26
-135 -80 -205 -17 -21 -27 -44 -24 -53 9 -23 40 -2 77 53 63 92 88 200 69 305
-21 115 -106 246 -126 195z"/>
<path d="M1380 1215 c-138 -44 -202 -199 -140 -343 23 -54 82 -116 126 -132
49 -19 147 -12 195 13 52 28 105 93 118 145 13 55 22 152 11 127 -9 -20 -9
-20 -10 0 -2 58 -70 149 -134 179 -48 22 -116 27 -166 11z m160 -46 c74 -45
110 -109 110 -196 0 -47 -4 -58 -28 -81 -98 -93 -151 -108 -264 -71 -66 21
-72 25 -90 66 -23 53 -22 136 3 187 22 46 67 91 99 99 24 6 24 5 5 -8 -106
-75 -135 -211 -62 -292 26 -29 41 -29 65 2 16 21 18 30 9 63 -14 55 -3 85 50
136 44 42 46 47 34 70 -7 13 -23 29 -35 34 -18 9 -14 11 24 11 29 1 57 -7 80
-20z m-92 -37 c2 -6 -9 -17 -25 -25 -71 -37 -99 -109 -70 -179 15 -35 13 -48
-5 -48 -15 0 -38 67 -38 113 0 52 29 100 80 134 34 24 51 25 58 5z m192 -267
c0 -20 -57 -83 -91 -101 -58 -29 -182 -12 -231 33 -28 25 -21 36 10 15 92 -64
209 -51 277 31 35 41 35 42 35 22z"/>
<path d="M1482 983 c-29 -32 -52 -63 -52 -70 0 -18 41 -43 71 -43 34 0 76 42
91 91 10 34 9 42 -7 59 -28 31 -48 24 -103 -37z m79 -16 c-15 -38 -47 -67 -76
-67 -33 0 -33 26 0 34 24 6 33 20 50 70 5 17 7 18 21 5 11 -12 12 -22 5 -42z"/>
<path d="M1873 985 c0 -44 2 -61 4 -37 2 23 2 59 0 80 -2 20 -4 1 -4 -43z"/>
<path d="M1847 833 c-37 -117 -125 -214 -234 -259 -32 -13 -51 -24 -43 -24 59
0 199 106 246 186 27 47 58 129 52 143 -1 5 -11 -16 -21 -46z"/>
<path d="M1224 688 c-4 -6 5 -21 22 -35 83 -67 250 -88 352 -43 66 29 69 46 5
34 -27 -5 -91 -9 -143 -9 -88 0 -99 2 -154 33 -66 36 -72 37 -82 20z"/>
<path d="M2405 684 c-22 -18 -35 -34 -28 -34 6 0 15 5 18 10 4 6 10 8 15 5 4
-3 13 2 20 10 7 8 9 15 4 15 -5 0 -2 4 6 10 8 5 12 11 10 14 -3 2 -23 -11 -45
-30z"/>
<path d="M2110 600 c0 -9 86 -30 121 -30 14 0 19 5 17 18 -3 14 -15 17 -71 19
-37 1 -67 -2 -67 -7z"/>
<path d="M2266 553 c-10 -25 5 -32 49 -23 22 4 30 8 18 9 -25 1 -31 16 -10 24
6 3 -2 6 -19 6 -21 1 -34 -5 -38 -16z"/>
<path d="M2095 550 c-3 -5 -5 -10 -3 -11 36 -7 111 -8 103 -1 -15 14 -93 24
-100 12z"/>
<path d="M813 1403 c-14 -5 -18 -43 -5 -43 11 0 33 38 24 43 -4 2 -13 2 -19 0z"/>
<path d="M833 1105 c0 -33 2 -45 4 -27 2 18 2 45 0 60 -2 15 -4 0 -4 -33z"/>
<path d="M2360 394 c-19 -7 -52 -13 -72 -13 -21 -1 -38 -5 -38 -11 0 -26 149
0 158 28 4 14 -2 14 -48 -4z"/>
</g>
</svg>
